# xmcd
#
# Track frame offsets: 
#        150
#        10702
#        20125
#        34940
#        52675
#        69220
#        86217
#        99217
#        116382
#
# Disc length: 1751 seconds
#
# Revision: 0
# Processed by: cddbd v1.5.2PL0 Copyright (c) Steve Scherf et al.
# Submitted via: ExactAudioCopyFreeDBPlugin 1.0
#
DISCID=6106d509
DTITLE=Olivia Newton-John - Country Roads
DYEAR=1991
DGENRE=country
TTITLE0=Help Me Make It through The Night
TTITLE1=Just a Little Too Much
TTITLE2=Take Me Home Country Roads
TTITLE3=Angel of the Morning
TTITLE4=If I Could Read Your Mind
TTITLE5=Love Song
TTITLE6=If Not For You
TTITLE7=Me And Bobby McGee
TTITLE8=Banks of the Ohio
EXTD=
EXTT0=
EXTT1=
EXTT2=
EXTT3=
EXTT4=
EXTT5=
EXTT6=
EXTT7=
EXTT8=
PLAYORDER=
